<svg xmlns="http://www.w3.org/2000/svg" xmlns:xlink="http://www.w3.org/1999/xlink" width="1920" zoomAndPan="magnify" viewBox="0 0 1440 809.999993" height="1080" preserveAspectRatio="xMidYMid meet" version="1.0"><defs><clipPath id="9d7d38534a"><path d="M 482.257812 163 L 688 163 L 688 262.1875 L 482.257812 262.1875 Z M 482.257812 163 " clip-rule="nonzero"/></clipPath><clipPath id="361fb20b9c"><path d="M 518 157.1875 L 532 157.1875 L 532 184 L 518 184 Z M 518 157.1875 " clip-rule="nonzero"/></clipPath><clipPath id="9f32679433"><path d="M 699 168 L 957.757812 168 L 957.757812 242 L 699 242 Z M 699 168 " clip-rule="nonzero"/></clipPath></defs><rect x="-144" width="1728" fill="#ffffff" y="-80.999999" height="971.999992" fill-opacity="1"/><rect x="-144" width="1728" fill="#ffffff" y="-80.999999" height="971.999992" fill-opacity="1"/><g clip-path="url(#9d7d38534a)"><path fill="#675d50" d="M 506.410156 217.960938 C 500.019531 217.960938 495.691406 214.390625 495.691406 203.578125 C 495.691406 192.980469 500.667969 189.195312 506.300781 189.195312 C 512.367188 189.195312 516.484375 192.765625 516.484375 203.363281 C 516.484375 214.5 511.933594 217.960938 506.410156 217.960938 Z M 662.570312 189.855469 C 651.617188 189.855469 649.257812 200.359375 649.257812 212.042969 C 649.257812 224.050781 651.722656 235.199219 662.890625 235.199219 C 673.628906 235.199219 676.207031 224.695312 676.207031 212.792969 C 676.207031 201.109375 673.84375 189.855469 662.570312 189.855469 Z M 663.105469 184.710938 C 679.535156 184.710938 687.371094 196.070312 687.371094 212.367188 C 687.371094 229.089844 678.136719 240.347656 662.460938 240.347656 C 646.355469 240.347656 638.089844 229.089844 638.089844 212.792969 C 638.089844 196.070312 647.753906 184.710938 663.105469 184.710938 Z M 615.886719 224.476562 L 615.886719 215.582031 L 609.875 215.582031 C 600.105469 215.582031 596.882812 219.65625 596.882812 225.980469 C 596.882812 231.339844 598.816406 234.449219 604.503906 234.449219 C 609.875 234.449219 615.886719 231.019531 615.886719 224.476562 Z M 604.613281 172.164062 C 602.25 171.199219 600.316406 170.449219 598.277344 170.449219 C 596.453125 170.449219 594.734375 171.308594 593.125 175.167969 L 590.007812 174.203125 C 591.945312 167.664062 595.054688 163.804688 601.285156 163.804688 C 605.257812 163.804688 607.40625 164.984375 610.519531 166.269531 C 612.664062 167.128906 614.707031 167.878906 616.855469 167.878906 C 619.324219 167.878906 620.613281 166.914062 622.117188 163.265625 L 625.121094 164.125 C 622.976562 171.949219 618.785156 174.632812 614.167969 174.632812 C 610.410156 174.632812 607.40625 173.34375 604.613281 172.164062 Z M 615.886719 211.078125 L 615.886719 203.789062 C 615.886719 194.464844 613.632812 189.210938 605.148438 189.210938 C 601.929688 189.210938 596.132812 189.640625 596.132812 193.714844 C 596.132812 194.144531 596.238281 194.570312 596.34375 195.105469 L 599.886719 195.105469 C 600.210938 196.394531 600.535156 197.785156 600.535156 198.96875 C 600.535156 202.609375 597.957031 204.648438 594.414062 204.648438 C 590.546875 204.648438 588.183594 202.289062 588.183594 198 C 588.183594 190.175781 596.132812 184.710938 606.757812 184.710938 C 620.183594 184.710938 626.085938 189.960938 626.085938 204.96875 L 626.085938 229.414062 C 626.085938 234.023438 626.839844 235.414062 629.414062 235.414062 C 630.597656 235.414062 631.671875 235.199219 632.957031 234.773438 L 633.925781 238.417969 C 632.101562 239.382812 629.3125 240.238281 626.085938 240.238281 C 620.503906 240.238281 617.285156 238.203125 616.421875 232.628906 C 613.09375 237.558594 607.296875 240.347656 600.640625 240.347656 C 592.375 240.347656 585.605469 236.699219 585.605469 226.625 C 585.605469 214.941406 595.164062 211.078125 608.476562 211.078125 Z M 567.15625 234.878906 L 567.15625 239.167969 L 538.378906 239.167969 L 538.378906 234.878906 L 545.355469 234.128906 L 545.355469 191.035156 L 538.378906 190.285156 L 538.378906 186.101562 L 553.839844 185.460938 L 554.59375 194.785156 L 555.019531 194.785156 C 558.136719 189.210938 562.539062 184.710938 570.484375 184.710938 C 576.386719 184.710938 581.433594 188.246094 581.433594 194.675781 C 581.433594 200.46875 578.429688 203.039062 573.917969 203.039062 C 569.625 203.039062 566.941406 200.359375 567.046875 195.746094 L 570.484375 194.355469 C 570.589844 193.925781 570.699219 193.496094 570.699219 193.070312 C 570.699219 191.140625 569.085938 190.496094 567.15625 190.496094 C 561.464844 190.496094 555.558594 197.894531 555.558594 204.113281 L 555.558594 234.128906 Z M 508.253906 241.101562 C 518.324219 241.101562 523.738281 241.746094 523.738281 247.585938 C 523.738281 254.507812 517.457031 256.671875 506.84375 256.671875 C 493.195312 256.671875 490.707031 253.535156 490.707031 248.453125 C 490.707031 245.425781 491.898438 243.15625 493.414062 241.101562 Z M 535.277344 177.222656 C 535.230469 171.773438 531.335938 169.023438 529.960938 168.265625 C 528.746094 167.597656 525.167969 166.355469 521.269531 170.058594 C 517.992188 173.167969 519.324219 177.0625 520.851562 179.058594 C 521.808594 178.855469 524.511719 178.289062 524.511719 178.289062 C 524.511719 178.289062 525.308594 179.390625 524.789062 180.75 C 524.09375 182.578125 519.878906 186.167969 518.371094 187.277344 C 518.285156 187.339844 518.195312 187.398438 518.105469 187.46875 C 515.402344 185.628906 511.390625 184.441406 506.519531 184.441406 C 492.222656 184.441406 485.183594 194.0625 485.183594 204.769531 C 485.183594 212.230469 488.757812 218.609375 495.578125 220.988281 C 490.273438 225.527344 485.941406 228.558594 485.941406 233.425781 C 485.941406 235.910156 487.132812 238.179688 489.730469 239.371094 C 486.046875 241.53125 482.257812 244.453125 482.257812 250.507812 C 482.257812 257.535156 487.78125 262.183594 504.242188 262.183594 C 524.820312 262.183594 531.644531 255.914062 531.644531 245.097656 C 531.644531 232.882812 522.332031 231.042969 509.878906 231.042969 L 499.695312 231.042969 C 496.664062 231.042969 495.253906 230.828125 495.253906 228.773438 C 495.253906 227.261719 496.878906 225.527344 500.34375 222.394531 C 502.511719 222.824219 503.8125 223.039062 506.519531 223.039062 C 517.78125 223.039062 526.769531 215.90625 526.769531 203.578125 C 526.769531 197.304688 524.28125 193.414062 521.246094 190.386719 C 523.625 189.75 525.792969 189.457031 529.542969 187.449219 C 532.574219 185.828125 535.324219 182.34375 535.277344 177.222656 Z M 535.277344 177.222656 " fill-opacity="1" fill-rule="nonzero"/></g><g clip-path="url(#361fb20b9c)"><path fill="#8ec44c" d="M 522.445312 183.738281 C 522.445312 183.738281 516.433594 175.0625 518.785156 168.800781 C 521.445312 161.71875 528.585938 157.1875 528.585938 157.1875 C 528.585938 157.1875 532.484375 166.835938 531.007812 172.355469 C 529.242188 178.953125 522.445312 183.738281 522.445312 183.738281 Z M 522.445312 183.738281 " fill-opacity="1" fill-rule="nonzero"/></g><g clip-path="url(#9f32679433)"><path fill="#8ec44c" d="M 738.507812 204.054688 L 738.507812 224.304688 C 735.863281 228.210938 730.5 230.933594 725.445312 230.933594 C 716.9375 230.933594 711.214844 224.199219 711.214844 214.179688 C 711.214844 204.097656 716.9375 197.320312 725.445312 197.320312 C 730.378906 197.320312 735.863281 200.148438 738.507812 204.054688 Z M 945.652344 214.074219 C 945.652344 222.195312 941.066406 230.933594 931 230.933594 C 921.007812 230.933594 916.457031 222.195312 916.457031 214.074219 C 916.457031 202.5625 923.996094 197.320312 931 197.320312 C 941.066406 197.320312 945.652344 206.007812 945.652344 214.074219 Z M 950.625 194.957031 C 945.722656 189.710938 938.9375 186.933594 931 186.933594 C 915.554688 186.933594 904.347656 198.347656 904.347656 214.074219 C 904.347656 229.863281 915.554688 241.320312 931 241.320312 C 938.941406 241.320312 945.730469 238.542969 950.625 233.28125 C 955.226562 228.34375 957.757812 221.519531 957.757812 214.074219 C 957.757812 206.675781 955.226562 199.886719 950.625 194.957031 Z M 898.742188 229.210938 C 897.976562 230.066406 896.011719 230.933594 893.855469 230.933594 C 890.992188 230.933594 889.140625 228.707031 889.140625 225.125 L 889.140625 198.253906 L 899.710938 198.253906 L 899.710938 188.578125 L 889.140625 188.578125 L 889.140625 174.507812 L 877.691406 174.507812 L 877.691406 188.578125 L 868.882812 188.578125 L 868.882812 198.253906 L 877.691406 198.253906 L 877.691406 227.890625 C 877.691406 236.550781 882.421875 241.320312 891.097656 241.320312 C 895.847656 241.320312 899.429688 240.1875 901.785156 237.957031 L 901.890625 237.851562 L 899.042969 228.878906 Z M 856.59375 209.6875 L 828.179688 209.6875 C 828.851562 203.53125 833.464844 196.585938 842.378906 196.585938 C 848.945312 196.585938 856.148438 200.890625 856.59375 209.6875 Z M 842.378906 186.933594 C 827.371094 186.933594 816.050781 198.601562 816.050781 214.074219 C 816.050781 230.117188 827.226562 241.320312 843.230469 241.320312 C 851.738281 241.320312 859.210938 238.652344 864.269531 233.8125 L 864.425781 233.664062 L 859.023438 225.90625 L 858.808594 226.117188 C 855.480469 229.441406 849.691406 231.894531 844.40625 231.894531 C 837.199219 231.894531 829.46875 227.273438 828.292969 218.480469 L 868 218.480469 L 868 215.136719 C 868 207.160156 865.519531 199.988281 861.042969 194.9375 C 856.402344 189.699219 849.9375 186.933594 842.382812 186.933594 Z M 798.410156 195.292969 L 798.410156 188.578125 L 786.078125 188.578125 L 786.078125 240.46875 L 798.410156 240.46875 L 798.410156 204.902344 C 800.171875 201.425781 806.667969 198.277344 811.273438 198.277344 C 812.628906 198.277344 813.84375 198.382812 814.785156 198.589844 L 815.144531 198.65625 L 815.144531 186.820312 L 814.707031 186.820312 C 808.65625 186.820312 802.8125 190.113281 798.410156 195.292969 Z M 768.34375 168.121094 C 764.457031 168.121094 761.171875 171.402344 761.171875 175.28125 C 761.171875 179.164062 764.457031 182.441406 768.34375 182.441406 C 772.296875 182.441406 775.515625 179.230469 775.515625 175.28125 C 775.515625 171.332031 772.296875 168.121094 768.34375 168.121094 Z M 762.292969 240.46875 L 773.742188 240.46875 L 773.742188 188.578125 L 762.292969 188.578125 Z M 738.507812 194.855469 C 734.101562 189.8125 728.496094 186.933594 722.25 186.933594 C 708.410156 186.933594 699.109375 197.882812 699.109375 214.179688 C 699.109375 230.414062 708.414062 241.320312 722.253906 241.320312 C 728.515625 241.320312 734.101562 238.480469 738.507812 233.5 L 738.507812 240.46875 L 749.960938 240.46875 L 749.960938 168.347656 L 738.507812 168.347656 Z M 738.507812 194.855469 " fill-opacity="1" fill-rule="nonzero"/></g></svg>